<?xml version="1.0" encoding="UTF-8"?>
<svg width="547px" height="352px" viewBox="0 0 547 352" version="1.1" xmlns="http://www.w3.org/2000/svg" xmlns:xlink="http://www.w3.org/1999/xlink">
    <title>fathanfi-logo-coffee-dark</title>
    <g id="Page-1" stroke="none" stroke-width="1" fill="none" fill-rule="evenodd">
        <g id="fathanfi-logo-coffee-dark" transform="translate(1.255000, 0.728635)" fill="#FFFFFF" fill-rule="nonzero" stroke="#FFFFFF">
            <g id="Group" transform="translate(220.691215, 40.298716)">
                <path d="M103.053785,1.81764885 C103.053785,6.10564885 96.0407847,9.00164885 79.8277847,11.4086489 C67.4767847,13.2426489 40.9897847,13.4546489 27.0537847,11.8316489 C13.7807847,10.2846489 11.6957847,10.2706489 18.0537847,11.7686489 C28.2487847,14.1716489 44.3807847,15.1346489 65.0537847,14.5756489 C83.9687847,14.0636489 85.1287847,14.1296489 80.0537847,15.4246489 C61.2697847,20.2196489 29.0787847,19.7266489 11.8037847,14.3796489 C10.2317847,13.8926489 10.0537847,14.7036489 10.0537847,22.3556489 C10.0537847,33.8296489 11.5997847,40.6496489 15.2507847,45.2886489 C18.7257847,49.7036489 18.2467847,51.2286489 14.2877847,48.3536489 C8.78978468,44.3616489 5.07978468,32.4596489 5.06178468,18.7576489 C5.05478468,13.9926489 4.70678468,12.8576489 2.96778468,11.9266489 C0.332784682,10.5166489 0.189784682,10.6896489 0.021784682,15.5026489 C-0.403215318,27.6686489 5.47978468,48.1316489 9.84478468,49.6686489 C10.7847847,49.9996489 12.4667847,51.0886489 13.5817847,52.0876489 C17.5727847,55.6626489 24.0597847,57.0996489 38.0537847,57.5056489 C46.4127847,57.7486489 50.4117847,57.5766489 48.5537847,57.0536489 C46.9037847,56.5896489 43.9787847,56.0926489 42.0537847,55.9506489 C40.1287847,55.8086489 45.0787847,55.6116489 53.0537847,55.5136489 C67.8907847,55.3306489 87.3037847,52.3596489 93.2017847,49.3696489 C96.8087847,47.5406489 99.9237847,40.6646489 101.635785,30.7486489 C102.422785,26.1966489 103.273785,21.9106489 103.528785,21.2226489 C103.825785,20.4186489 106.070785,19.9726489 109.822785,19.9726489 C118.802785,19.9726489 119.646785,17.7576489 110.726785,17.5996489 L103.553785,17.4726489 L103.253785,12.8296489 C102.982785,8.64064885 102.737785,8.23064885 100.753785,8.63664885 C98.9017847,9.01664885 98.9847847,8.83864885 101.278785,7.51164885 C104.314785,5.75464885 106.015785,3.11864885 105.335785,1.22264885 C104.651785,-0.683351147 103.053785,-0.266351147 103.053785,1.81764885" id="Path"></path>
            </g>
            <g id="Group" transform="translate(348.009000, 132.271365)">
                <path d="M1.344,19.75 C1.008,30.613 0.568,44.563 0.367,50.75 L0,62 L7.343,62 L14.686,62 L14.961,45.75 C15.182,32.711 15.509,29.5 16.62,29.5 C17.381,29.5 22.434,36.925 27.85,46 L37.695,62.5 L43.466,63.088 C46.639,63.412 49.527,63.412 49.883,63.088 C50.239,62.765 50.854,48.663 51.248,31.75 L51.966,1 L44.851,1 L37.736,1 L37.727,10.75 C37.717,22.062 36.804,31 35.658,31 C35.219,31 31.163,24.813 26.646,17.25 C22.129,9.688 17.756,2.713 16.929,1.75 C15.774,0.405 13.866,0 8.69,0 L1.955,0 L1.344,19.75" id="Path"></path>
            </g>
            <g id="Group" transform="translate(164.745000, 219.298649)">
                <path d="M168.496,3.22271549 C167.687,5.01071549 163.396,17.0477155 158.961,29.9727155 C154.526,42.8977155 150.37,54.5307155 149.726,55.8227155 C147.862,59.5637155 140.522,66.9727155 138.68,66.9727155 C136.477,66.9727155 136.561,65.2217155 139.089,58.4637155 C141.514,51.9827155 141.095,48.6717155 138.183,51.3067155 C136.917,52.4527155 135.359,52.7427155 132.751,52.3197155 C128.777,51.6747155 127.516,52.6287155 120.194,61.8217155 C116.273,66.7437155 113.384,67.4517155 114.479,63.2227155 C114.871,61.7107155 115.416,58.3357155 115.692,55.7227155 C116.18,51.0947155 116.123,50.9727155 113.465,50.9727155 C111.964,50.9727155 109.22,51.9097155 107.368,53.0547155 L104,55.1357155 L104,51.5547155 C104,46.8947155 101.558,46.7527155 100.049,51.3257155 C97.531,58.9537155 91.551,60.8727155 88.526,55.0227155 C87.097,52.2607155 85.17,50.9727155 82.463,50.9727155 C81.708,50.9727155 78.59,53.4127155 75.535,56.3957155 C68.758,63.0127155 65.175,64.1087155 61.125,60.8037155 C59.554,59.5217155 57.423,57.9757155 56.391,57.3677155 C54.776,56.4177155 54.705,56.0337155 55.879,54.6177155 C57.479,52.6907155 61.086,52.4587155 62.8,54.1727155 C63.733,55.1057155 64.278,55.0907155 65.25,54.1017155 C66.253,53.0817155 66.033,52.4497155 64.139,50.9017155 C59.6,47.1927155 53.937,49.0397155 50.987,55.1897155 C47.719,62.0047155 41.593,67.9727155 37.865,67.9727155 C35.246,67.9727155 35.482,64.9277155 38.576,58.8237155 L41.151,53.7407155 L38.661,51.1067155 C37.291,49.6577155 36.019,47.3827155 35.835,46.0507155 C35.266,41.9357155 33.369,42.6587155 30.248,48.1797155 C26.761,54.3497155 18.451,62.4687155 13.511,64.5327155 C8.901,66.4587155 4,66.4277155 4,64.4727155 C4,63.6477155 4.879,62.9727155 5.953,62.9727155 C11.535,62.9727155 16.22,57.1207155 13.983,52.9417155 C10.342,46.1377155 0,53.3437155 0,62.6857155 C0,73.8277155 14.631,71.8117155 27.008,58.9637155 C30.183,55.6687155 33.28,52.9727155 33.89,52.9727155 C35.438,52.9727155 35.274,56.0737155 33.5,60.3187155 C29.705,69.4017155 33.083,73.7407155 41.46,70.5407155 C44.134,69.5197155 47.407,67.1467155 49.477,64.7277155 C52.679,60.9877155 53.189,60.7377155 55.488,61.7857155 C56.87,62.4147155 57.998,63.2767155 57.996,63.7017155 C57.994,64.1257155 55.632,65.5977155 52.746,66.9727155 C48.461,69.0147155 47.44,69.9927155 47.175,72.3107155 C46.79,75.6707155 49.385,78.9747155 52.405,78.9687155 C55.837,78.9627155 60.54,75.4617155 62.41,71.5207155 C63.703,68.7967155 65.353,67.3217155 68.722,65.8777155 C73.626,63.7757155 73.714,63.7927155 75.455,67.2047155 C77.331,70.8807155 82.725,70.0427155 86.555,65.4807155 C89.134,62.4087155 90.034,61.9437155 92.301,62.5117155 C94.793,63.1377155 94.944,63.4707155 94.367,67.0797155 C93.425,72.9687155 95.829,72.1097155 102.124,64.3087155 C110.509,53.9157155 113.157,53.1777155 110.934,61.8527155 C109.265,68.3667155 110.423,69.9457155 116.859,69.9267155 C119.412,69.9187155 122.764,69.9717155 124.308,70.0447155 C125.853,70.1177155 127.913,69.4557155 128.887,68.5747155 C131.277,66.4117155 131.887,66.5447155 133,69.4727155 C134.091,72.3417155 137.078,72.7147155 141,70.4727155 C142.375,69.6867155 143.838,69.0277155 144.25,69.0077155 C145.491,68.9497155 145.061,72.1427155 142.999,78.3077155 C140.016,87.2217155 139.363,93.7907155 141.381,94.5657155 C144.052,95.5907155 149.58,91.1457155 154.866,83.7227155 C155.923,82.2377155 155.962,81.5407155 155.038,80.6387155 C154.123,79.7447155 153.104,80.3487155 150.672,83.2227155 C146.826,87.7697155 144.489,88.2157155 145.433,84.2227155 C146.93,77.8887155 155.798,50.7767155 164.107,27.1357155 C169.004,13.2007155 172.757,1.38771549 172.446,0.885715485 C171.374,-0.850284515 169.962,-0.0152845147 168.496,3.22271549 M84.639,56.4747155 C85.43,58.5367155 84.322,62.5077155 82.427,64.4027155 C79.739,67.0907155 78.696,66.2727155 79.278,61.9337155 C80.061,56.0957155 83.249,52.8507155 84.639,56.4747155 M133,57.3957155 C133,59.3717155 128.129,64.9727155 126.411,64.9727155 C124.705,64.9727155 124.664,64.4907155 126.128,61.6567155 C128.709,56.6617155 133,54.0007155 133,57.3957155 M58,70.1437155 C58,72.0527155 54.839,74.9727155 52.772,74.9727155 C50.065,74.9727155 50.887,71.8417155 54.009,70.2627155 C57.126,68.6857155 58,68.6597155 58,70.1437155 M10.527,55.0167155 C11.334,56.3217155 9.223,58.9727155 7.378,58.9727155 C5.681,58.9727155 5.579,56.7937155 7.2,55.1727155 C8.676,53.6967155 9.682,53.6497155 10.527,55.0167155" id="Shape"></path>
            </g>
            <g id="Group" transform="translate(189.745000, 131.271365)">
                <path d="M41,11.481 C41,25.099 42.095,24.23 25.5,23.791 L14.5,23.5 L14.217,12.25 L13.934,1 L6.967,1 L0,1 L0,16.841 C0,25.554 0.295,39.504 0.656,47.841 L1.312,63 L8.156,63 L15,63 L15,50.471 L15,37.942 L28.25,38.221 L41.5,38.5 L41.782,50.25 L42.063,62 L49.191,62 L56.319,62 L55.66,39.338 C55.297,26.875 55,12.925 55,8.338 L55,0 L48,0 L41,0 L41,11.481" id="Path"></path>
            </g>
            <g id="Group" transform="translate(56.181400, 136.271365)">
                <path d="M20.0985998,0.909 C18.6225998,1.486 17.2205998,4.761 14.4585998,14.088 C12.4375998,20.915 8.25159984,34.78 5.15659984,44.899 C2.06159984,55.019 -0.249400155,63.52 0.0215998448,63.791 C0.291599845,64.062 3.74259984,63.882 7.69059984,63.392 L14.8675998,62.5 L16.2315998,57.799 C16.9815998,55.214 17.9255998,52.909 18.3295998,52.678 C18.7335998,52.447 23.9135998,51.944 29.8405998,51.56 L40.6175998,50.863 L42.7235998,55.931 L44.8305998,61 L52.6965998,61 C57.0235998,61 60.5625998,60.888 60.5606007,60.75 C60.5585998,60.613 57.6145998,53.75 54.0195998,45.5 C50.4235998,37.25 44.5235998,23.638 40.9085998,15.25 L34.3345998,0 L28.1995998,0.07 C24.8245998,0.109 21.1795998,0.486 20.0985998,0.909 M31.3795998,29.269 C33.9835998,35.551 34.0605998,36.595 31.9815998,37.393 C29.6195998,38.3 23.7585998,38.125 23.1445998,37.13 C22.2925998,35.753 26.6135998,24 27.9715998,24 C28.6445998,24 30.1785998,26.371 31.3795998,29.269" id="Shape"></path>
            </g>
            <g id="Group" transform="translate(265.907000, 131.271365)">
                <path d="M20.054,8.25 C18.322,12.788 13.102,26.625 8.453,39 L0,61.5 L7.669,61.784 L15.338,62.069 L17.373,56.784 L19.408,51.5 L30.373,51.5 L41.338,51.5 L43.745,56.674 C45.221,59.848 46.962,62.066 48.245,62.411 C51.515,63.289 60.838,63.096 60.838,62.15 C60.838,61.382 42.305,9.328 39.689,2.75 C38.628,0.083 38.363,0 30.899,0 L23.202,0 L20.054,8.25 M35.212,34.448 C35.332,37.348 35.126,37.515 31.079,37.808 C27.987,38.031 26.66,37.7 26.238,36.599 C25.555,34.821 27.386,28.571 29.635,25.002 L31.209,22.504 L33.148,26.95 C34.214,29.395 35.143,32.769 35.212,34.448" id="Shape"></path>
            </g>
            <g id="Group" transform="translate(0.000000, 139.271365)">
                <path d="M17.822,1.055 C12.64,1.478 6.509,2.108 4.2,2.455 L-3.55271368e-15,3.084 L0.418,7.292 C0.648,9.606 1.681,23.353 2.714,37.84 C3.747,52.327 4.816,64.404 5.09,64.678 C5.364,64.952 8.523,64.862 12.111,64.477 L18.635,63.779 L18.043,51.991 L17.45,40.204 L26.347,39.543 C41.308,38.432 40.435,38.934 39.947,31.712 C39.716,28.295 39.239,25.229 38.886,24.897 C38.534,24.565 33.745,24.68 28.245,25.152 C22.745,25.625 17.658,25.788 16.94,25.516 C16.055,25.18 15.733,23.488 15.94,20.26 L16.245,15.5 L27.745,14.5 C35.849,13.795 39.215,13.131 39.145,12.25 C39.09,11.563 38.978,8.525 38.895,5.5 L38.745,0 L32.995,0.143 C29.833,0.221 23.005,0.631 17.822,1.055" id="Path"></path>
            </g>
            <g id="Group" transform="translate(462.470000, 137.021365)">
                <path d="M3.897,3.375 C3.614,5.231 2.901,15.525 2.312,26.25 C1.724,36.975 0.963,49.463 0.621,54 L0,62.25 L6.995,62.25 L13.99,62.25 L14.633,56.103 C14.986,52.723 15.282,48.11 15.29,45.853 C15.316,39.01 15.643,38.85 28.06,39.604 L39.033,40.271 L39.517,34.01 C39.782,30.567 39.846,27.471 39.659,27.13 C39.471,26.789 34.336,26.187 28.247,25.793 L17.177,25.075 L17.476,19.913 L17.775,14.75 L29.379,15.105 L40.983,15.459 L41.629,12.23 C41.984,10.453 42.275,7.517 42.275,5.704 C42.275,1.595 42.114,1.557 20.594,0.669 L4.412,0 L3.897,3.375" id="Path"></path>
            </g>
            <g id="Group" transform="translate(120.991001, 133.465000)">
                <path d="M13.2699988,0.555364823 C6.67899883,0.730364823 0.892998826,1.26736482 0.410998826,1.74936482 C-0.0700011742,2.23036482 -0.139001174,5.42136482 0.257998826,8.84136482 L0.979998826,15.0593648 L7.78399883,14.5723648 C11.5259988,14.3043648 15.0599988,14.3773648 15.6379988,14.7343648 C16.2569988,15.1173648 16.9219988,21.7393648 17.2549988,30.8453648 C17.5669988,39.3483648 18.0739988,50.0383648 18.3819988,54.6003648 L18.9409988,62.8933648 L25.5969988,62.6003648 L32.2539988,62.3063648 L32.2359988,56.8063648 C32.2259988,53.7813648 32.0009988,42.9813648 31.7359988,32.8063648 L31.2539988,14.3063648 L39.0039988,13.4373648 L46.7539988,12.5683648 L46.7539988,7.76936482 C46.7539988,5.12936482 46.4809988,2.25836482 46.1469988,1.38836482 C45.5049988,-0.283635177 45.1499988,-0.292635177 13.2699988,0.555364823" id="Path"></path>
            </g>
            <g id="Group" transform="translate(361.096139, 224.717623)">
                <path d="M21.9738606,0.787741342 C19.6328606,4.43374134 4.91086063,40.8707413 1.61486063,51.1767413 C-0.636139367,58.2157413 -0.527139367,62.0947413 1.89986063,61.3227413 C2.58686063,61.1037413 5.98286063,55.5567413 9.44686063,48.9947413 C18.3328606,32.1657413 25.7408606,20.0267413 31.3768606,13.0597413 C36.4358606,6.80774134 39.6488606,4.95174134 39.6488606,8.28374134 C39.6488606,13.5987413 25.3618606,37.0317413 20.5508606,39.6057413 C17.0118606,41.4997413 18.2798606,43.4157413 22.9538606,43.2347413 C27.9918606,43.0397413 31.8168606,45.1867413 34.7528606,49.8577413 C36.5118606,52.6557413 36.7068606,54.2987413 36.3208606,63.0537413 C35.8108606,74.6177413 34.9108606,78.0447413 30.4168606,85.5137413 C24.4488606,95.4347413 12.4718606,101.408741 7.51386063,96.9387413 C2.91386063,92.7917413 7.56486063,77.5497413 16.6218606,67.0847413 C20.5388606,62.5597413 21.0128606,60.5537413 18.1678606,60.5537413 C15.9728606,60.5537413 9.80386063,68.4777413 5.97586063,76.2147413 C3.42086063,81.3777413 2.28686063,85.1897413 1.91086063,89.8797413 C1.42786063,95.8897413 1.58486063,96.5807413 3.97286063,98.9687413 C6.47086063,101.465741 8.67486063,101.980741 15.1488606,101.579741 C21.6058606,101.178741 31.2008606,93.1407413 35.7458606,84.3247413 C41.3748606,73.4047413 42.2228606,54.0407413 37.3908606,46.7397413 C35.9468606,44.5577413 33.3888606,42.1637413 31.7068606,41.4197413 C30.0248606,40.6747413 28.6488606,39.5147413 28.6488606,38.8407413 C28.6488606,38.1667413 30.6158606,34.5647413 33.0198606,30.8347413 C43.6578606,14.3297413 46.4248606,3.88674134 40.6478606,2.05374134 C36.2478606,0.656741342 29.8028606,6.92174134 20.0728606,22.0537413 C14.6418606,30.4997413 14.6588606,27.0677413 20.1108606,14.3027413 C22.6068606,8.46074134 24.6488606,3.00374134 24.6488606,2.17674134 C24.6488606,0.113741342 22.9668606,-0.759258658 21.9738606,0.787741342" id="Path"></path>
            </g>
            <g id="Group" transform="translate(86.917262, 218.311527)">
                <path d="M35.3887381,3.20983771 C34.6527381,4.99783771 28.9937381,21.0848377 22.8117381,38.9598377 C16.6307381,56.8348377 8.93173806,78.8848377 5.70273806,87.9598377 C-0.456261937,105.269838 -1.05926194,107.959838 1.22073806,107.959838 C2.86273806,107.959838 2.44173806,108.945838 9.92773806,87.5918377 C21.0537381,55.8578377 33.8847381,32.8438377 48.7847381,17.8958377 C56.5657381,10.0898377 62.9047381,6.70583771 68.9187381,7.14983771 C74.6187381,7.56983771 77.0487381,10.8688377 77.6357381,18.9828377 C78.5487381,31.6108377 73.0687381,46.8018377 63.8817381,57.1098377 C58.3927381,63.2678377 51.8037381,67.2098377 43.2927381,69.4268377 C35.8077381,71.3768377 31.0887381,71.3638377 25.2427381,69.3798377 C19.6067381,67.4658377 17.1327381,68.8028377 21.2807381,71.5208377 C24.6897381,73.7548377 36.6837381,74.5848377 43.7257381,73.0748377 C51.9157381,71.3188377 59.2087381,67.3618377 65.0847381,61.4848377 C76.6987381,49.8718377 83.2697381,30.7748377 80.8657381,15.6258377 C80.0517381,10.4958377 79.2967381,8.91383771 76.3727381,6.20983771 C73.5267381,3.57883771 72.0277381,2.95983771 68.5017381,2.95983771 C59.1257381,2.95983771 46.4767381,12.4248377 35.0917381,27.9598377 C30.6357381,34.0398377 30.3357381,34.2648377 30.4507381,31.4368377 C30.5177381,29.7748377 32.6757381,22.6148377 35.2457381,15.5258377 C37.8157381,8.43683771 39.6867381,2.03483771 39.4037381,1.29883771 C38.5217381,-1.00216229 36.7807381,-0.173162286 35.3887381,3.20983771" id="Path"></path>
            </g>
            <g id="Group" transform="translate(421.203152, 270.271365)">
                <path d="M3.7118482,2.512 C0.890848202,6.097 -0.929151798,14.252 0.496848202,16.917 C2.4938482,20.648 9.5838482,18.754 12.1428482,13.805 C12.9408482,12.262 13.9948482,11 14.4858482,11 C17.0788482,11 18.5418482,12.468 18.5418482,15.072 C18.5418482,19.211 21.4548482,20.486 25.9788482,18.329 C27.9248482,17.401 29.7498482,16.875 30.0358482,17.16 C30.3208482,17.446 28.0728482,24.985 25.0408482,33.914 C16.5098482,59.032 9.9458482,74 7.4598482,74 C4.9878482,74 7.7608482,59.085 12.0248482,49.442 C13.4328482,46.258 16.2078482,41.673 18.1908482,39.253 C21.7648482,34.892 21.7898482,32.2 18.2438482,33.561 C16.3488482,34.288 10.7038482,42.7 8.2188482,48.5 C2.9418482,60.821 0.866848202,76.365 4.1368482,79.079 C6.8448482,81.327 10.6148482,78.271 14.7428482,70.482 C21.0098482,58.659 40.7968482,1.922 39.2078482,0.333 C38.7918482,-0.084 37.6118482,0.1 36.5868482,0.74 C35.5618482,1.38 33.2018482,1.657 31.3428482,1.355 C28.5018482,0.894 27.2758482,1.38 23.6578482,4.403 C21.2898482,6.381 18.7898482,8 18.1018482,8 C16.5938482,8 13.5418482,4.792 13.5418482,3.206 C13.5418482,1.774 10.2988482,0 7.6798482,0 C6.5838482,0 4.7978482,1.13 3.7118482,2.512 M9.9998482,5.868 C10.7328482,8.178 9.3088482,12.118 7.0698482,13.977 C5.6298482,15.172 5.2608482,15.166 4.4888482,13.936 C3.4728482,12.317 4.0718482,9.575 6.1688482,6.25 C7.8968482,3.511 9.2098482,3.38 9.9998482,5.868 M31.5418482,6.429 C31.5418482,7.215 29.8698482,9.577 27.8268482,11.679 C24.4358482,15.167 24.0828482,15.316 23.7758482,13.388 C23.5818482,12.175 24.5638482,9.939 26.0788482,8.138 C28.8498482,4.845 31.5418482,4.003 31.5418482,6.429" id="Shape"></path>
            </g>
            <g id="Group" transform="translate(526.057374, 141.009365)">
                <path d="M4.2916258,3.381 C3.4626258,8.62 -0.386374204,61.522 0.0316257962,61.94 C0.235625796,62.144 3.3556258,62.586 6.9636258,62.923 L13.5236258,63.536 L14.0996258,59.149 C14.8216258,53.656 18.6336258,1.874 18.3376258,1.579 C18.2186258,1.46 15.1296258,1.056 11.4746258,0.681 L4.8276258,0 L4.2916258,3.381" id="Path"></path>
            </g>
            <g id="Group" transform="translate(235.061850, 35.614688)">
                <path d="M27.1311496,0.740676869 C26.7341496,1.38367687 25.2171496,1.61367687 23.5621496,1.28267687 C21.7781496,0.925676869 20.6831496,1.12767687 20.6831496,1.81267687 C20.6831496,2.51767687 19.4151496,2.71267687 17.1831496,2.35067687 C14.4721496,1.91067687 13.6831496,2.12467687 13.6831496,3.29867687 C13.6831496,4.45167687 14.3781496,4.66267687 16.5801496,4.17967687 C18.5691496,3.74267687 20.6821496,4.18867687 23.3161496,5.59967687 C27.9251496,8.06967687 28.6831496,8.13867687 28.6831496,6.08367687 C28.6831496,3.86767687 32.0721496,4.72067687 32.5201496,7.04867687 C33.0671496,9.88867687 30.8141496,10.6136769 26.7981496,8.88867687 C24.3701496,7.84667687 20.6721496,7.41067687 15.5351496,7.56167687 C8.5991496,7.76467687 7.7401496,7.57567687 6.3081496,5.53167687 C5.4401496,4.29167687 4.4111496,3.59567687 4.0231496,3.98367687 C3.6341496,4.37167687 3.8491496,5.22267687 4.5001496,5.87367687 C5.1511496,6.52367687 5.6831496,7.73167687 5.6831496,8.55667687 C5.6831496,9.72367687 5.4161496,9.78967687 4.4831496,8.85667687 C3.8231496,8.19667687 2.4181496,7.65667687 1.3611496,7.65667687 C-1.9538504,7.65667687 1.2171496,10.2656769 6.2391496,11.6726769 C10.2681496,12.8006769 10.8951496,12.7496769 12.0261496,11.2016769 C13.7781496,8.80667687 18.1831496,9.48967687 18.1831496,12.1566769 C18.1831496,14.5626769 21.9471496,15.5136769 31.8161496,15.5986769 C37.6351496,15.6496769 38.5141496,15.4106769 38.9731496,13.6566769 C39.6911496,10.9096769 43.6951496,10.9866769 44.4211496,13.7616769 C44.9021496,15.6036769 45.4681496,15.7866769 48.9521496,15.2296769 C51.1421496,14.8796769 53.8901496,14.0446769 55.0581496,13.3746769 C56.9981496,12.2626769 56.8561496,12.1666769 53.4331496,12.2706769 C49.4891496,12.3906769 48.9031496,11.8366769 50.8831496,9.85667687 C52.7381496,8.00167687 55.4121496,8.43167687 57.1131496,10.8596769 C58.6021496,12.9866769 58.8721496,13.0176769 64.9181496,11.7686769 C68.3631496,11.0576769 72.7571496,9.78967687 74.6821496,8.95067687 L78.1831496,7.42567687 L74.9141496,6.03067687 C72.1111496,4.83467687 71.3271496,4.83667687 69.4141496,6.04767687 C65.8181496,8.32467687 60.9361496,8.91667687 55.8431496,7.69467687 C52.5731496,6.91067687 49.7411496,6.85867687 46.7621496,7.52767687 C44.2691496,8.08767687 41.5331496,8.13667687 40.3081496,7.64167687 C38.8521496,7.05367687 38.6841496,6.76367687 39.7721496,6.71967687 C40.9941496,6.67167687 43.6831496,2.95067687 43.6831496,1.30967687 C43.6831496,1.17067687 40.4571496,0.946676869 36.5131496,0.810676869 C32.5701496,0.675676869 29.0011496,0.352676869 28.5821496,0.0946768688 C28.1641496,-0.164323131 27.5111496,0.126676869 27.1311496,0.740676869" id="Path"></path>
            </g>
            <g id="Group" transform="translate(400.265955, 219.261881)">
                <path d="M28.1870454,4.25948328 C12.9650454,47.9724833 8.53704545,61.1224833 4.38804545,74.9324833 C1.67404545,83.9654833 -0.284954552,92.1774833 0.0340454476,93.1824833 C0.937045448,96.0294833 4.09804545,95.3484833 8.51804545,91.3554833 C14.3600454,86.0774833 16.9950454,82.1254833 15.6000454,80.7304833 C14.7680454,79.8984833 13.4920454,80.5674833 10.6850454,83.3084833 C8.60004545,85.3434833 6.52604545,87.0094833 6.07604545,87.0094833 C5.62504545,87.0094833 5.55404545,85.4204833 5.91904545,83.4784833 C6.74904545,79.0544833 19.3440454,40.6874833 26.8390454,19.7544833 C29.9410454,11.0904833 32.4790454,3.10248328 32.4790454,2.00448328 C32.4790454,-1.55951672 29.7060454,-0.102516717 28.1870454,4.25948328" id="Path"></path>
            </g>
            <g id="Group" transform="translate(389.745000, 52.337585)">
                <path d="M2,1.93377917 C0.385,3.54877917 0,5.26677917 0,10.8687792 C0,20.4807792 1.073,22.9337792 5.275,22.9337792 C10.351,22.9337792 11,21.6107792 11,11.2687792 C11,3.13277917 10.764,1.87777917 9.066,0.968779166 C6.195,-0.567220834 4.233,-0.299220834 2,1.93377917 M8.965,2.86777917 C10.202,5.17977917 10.325,18.8717792 9.126,20.7637792 C8.647,21.5197792 7.034,21.9517792 5.391,21.7637792 L2.5,21.4337792 L2.21,12.5847792 C1.906,3.31777917 2.699,0.933779166 6.087,0.933779166 C7.101,0.933779166 8.395,1.80377917 8.965,2.86777917" id="Shape"></path>
            </g>
            <g id="Group" transform="translate(31.886413, 53.270364)">
                <path d="M0.0745865236,10.7510003 L0.358586524,21.5010003 L4.28358652,21.3710003 C9.16758652,21.2100003 11.2815865,18.7910003 10.2875865,14.5010003 C9.90458652,12.8510003 9.67858652,9.29400031 9.78458652,6.59700031 C9.97858652,1.67400031 9.01658652,0.0490003122 5.88558652,0.0160003122 C4.91858652,0.00600031221 5.17658652,0.535000312 6.63558652,1.55800031 C9.21558652,3.36500031 9.55158652,7.18100031 7.29558652,9.05300031 C5.87758652,10.2300003 5.87758652,10.4320003 7.29558652,11.2260003 C9.70058652,12.5720003 9.34458652,18.6700003 6.78058652,20.0430003 C2.53258652,22.3160003 1.83658652,20.8260003 2.10758652,10.0310003 C2.29858652,2.40000031 2.05158652,-0.000999687786 1.07458652,0 C0.0915865236,0.00100031221 -0.142413476,2.52000031 0.0745865236,10.7510003" id="Path"></path>
            </g>
            <g id="Group" transform="translate(298.900722, 12.289758)">
                <path d="M5.34027795,0.481606584 C7.51027795,5.84860658 7.08227795,8.39060658 3.41627795,11.9276066 C-0.462722046,15.6696066 -0.885722046,17.4326066 1.37627795,20.4226066 C2.76827795,22.2626066 2.84427795,22.2016066 2.84427795,19.2406066 C2.84427795,16.8706066 3.38727795,15.9506066 5.09427795,15.4306066 C11.537278,13.4676066 12.551278,8.35960658 7.68827795,2.36960658 C5.95227795,0.230606584 4.89627795,-0.618393416 5.34027795,0.481606584" id="Path"></path>
            </g>
            <g id="Group" transform="translate(280.937722, 37.085958)">
                <path d="M4.8072776,0.406406778 C4.8072776,0.904406778 3.8062776,1.17040678 2.5822776,0.998406778 C1.1912776,0.802406778 0.240277602,1.26840678 0.0462776019,2.23840678 C-0.194722398,3.44840678 0.463277602,3.70740678 3.0222776,3.41140678 C4.8292776,3.20140678 9.3612776,3.44040678 13.0932776,3.94140678 C18.1662776,4.62340678 20.3112776,4.53740678 21.5922776,3.60040678 C23.1482776,2.46240678 23.0762776,2.30340678 20.8062776,1.85540678 C19.4312776,1.58440678 17.4072776,1.34440678 16.3072776,1.32240678 C15.2072776,1.30040678 12.1702776,0.882406778 9.5572776,0.392406778 C6.7362776,-0.135593222 4.8072776,-0.130593222 4.8072776,0.406406778" id="Path"></path>
            </g>
            <g id="Group" transform="translate(114.313189, 53.271365)">
                <path d="M4.76381149,6.168 C2.98181149,12.135 1.05581149,14.499 0.170811492,11.805 C-0.0651885077,11.087 -0.0551885077,11.85 0.191811492,13.5 C0.439811492,15.15 1.03081149,16.913 1.50481149,17.417 C2.44681149,18.42 2.74881149,17.782 4.40981149,11.292 C6.44881149,3.323 8.09581149,5.114 8.73781149,16 C8.91581149,19.025 9.14481149,16.663 9.24681149,10.75 C9.39581149,2.067 9.15981149,0 8.01881149,0 C7.15281149,0 5.89181149,2.389 4.76381149,6.168" id="Path"></path>
            </g>
            <g id="Group" transform="translate(166.700651, 53.271365)">
                <path d="M3.58834876,2.25 C3.31634876,3.488 2.24634876,8.213 1.21034876,12.75 C0.174348759,17.288 -0.286651241,21 0.185348759,21 C0.657348759,21 1.04434876,20.086 1.04434876,18.969 C1.04434876,17.851 1.75734876,16.664 2.62834876,16.329 C3.68134876,15.925 3.83934876,15.492 3.10134876,15.035 C1.61134876,14.115 3.77034876,3.742 5.34234876,4.266 C6.78834876,4.748 8.32634876,10.743 7.76234876,13.695 C7.52034876,14.963 7.67134876,16 8.09934876,16 C8.52734876,16 9.32934876,17.238 9.88234876,18.75 C11.6143488,23.492 11.1433488,18.581 8.95434876,9.076 C7.55434876,2.991 6.40634876,0 5.47334876,0 C4.70834876,0 3.86034876,1.013 3.58834876,2.25" id="Path"></path>
            </g>
            <g id="Group" transform="translate(108.732486, 53.271365)">
                <path d="M0.679514269,0.667 C-0.416485731,1.762 -0.100485731,21 1.01251427,21 C1.59051427,21 2.01251427,17.833 2.01251427,13.5 C2.01251427,9.167 2.43451427,6 3.01251427,6 C3.56251427,6 4.01251427,6.75 4.01251427,7.667 C4.01251427,8.583 4.26751427,9.079 4.57851427,8.768 C5.35251427,7.993 3.13051427,0 2.14051427,0 C1.70351427,0 1.04551427,0.3 0.679514269,0.667" id="Path"></path>
            </g>
            <g id="Group" transform="translate(367.868037, 52.416749)">
                <path d="M1.52896263,1.11961506 C0.051962625,2.19961506 -0.159037375,3.84561506 0.087962625,12.3696151 L0.376962625,22.3546151 L3.69196263,22.6726151 C7.20196263,23.0096151 9.87696263,21.5216151 9.87696263,19.2326151 C9.87696263,17.0956151 8.17496263,17.6086151 7.56796263,19.9286151 C7.15196263,21.5206151 6.36996263,21.9266151 4.20096263,21.6786151 L1.37696263,21.3546151 L1.09096263,12.2566151 C0.868962625,5.16361506 1.13396263,2.88661506 2.29296263,1.92361506 C4.41096263,0.166615062 7.31296263,1.40661506 8.57996263,4.61161506 C9.54796263,7.05961506 9.67596263,7.12061506 9.77096263,5.17561506 C9.98296263,0.829615062 5.16796263,-1.54038494 1.52896263,1.11961506" id="Path"></path>
            </g>
            <g id="Group" transform="translate(53.921616, 52.771365)">
                <path d="M0.0313835377,10.05 C-0.108616462,16.786 0.219383538,20.496 1.02338354,21.3 C2.49738354,22.774 6.29338354,22.854 8.88938354,21.465 C10.6303835,20.533 10.8023835,19.41 10.6153835,10.215 L10.4083835,0 L10.0753835,9.446 C9.72238354,19.484 8.92738354,21.5 5.32338354,21.5 C1.71938354,21.5 0.924383538,19.484 0.571383538,9.446 L0.238383538,0 L0.0313835377,10.05" id="Path"></path>
            </g>
            <g id="Group" transform="translate(433.745000, 53.342139)">
                <path d="M0,10.4292253 C0,16.7622253 0.397,20.9292253 1,20.9292253 C1.55,20.9292253 2,18.7092253 2,15.9952253 C2,11.3812253 2.178,11.0352253 4.75,10.6452253 L7.5,10.2292253 L4.75,10.0792253 C2.188,9.93922526 2,9.62822526 2,5.51222526 C2,2.91522526 2.515,0.88822526 3.25,0.59122526 C3.938,0.31422526 3.488,0.0512252597 2.25,0.00822525971 C0.055,-0.0687747403 0,0.18322526 0,10.4292253" id="Path"></path>
            </g>
            <g id="Group" transform="translate(475.745000, 53.271365)">
                <path d="M0,11 L0,22 L4.75,21.858 L9.5,21.716 L5.5,21.108 C1.516,20.502 1.5,20.482 1.5,16 C1.5,11.634 1.604,11.483 5,10.923 L8.5,10.347 L5,9.923 C1.655,9.519 1.5,9.323 1.5,5.51 C1.5,1.886 1.775,1.461 4.5,0.878 C7.406,0.257 7.383,0.233 3.75,0.118 L0,0 L0,11" id="Path"></path>
            </g>
            <g id="Group" transform="translate(74.745000, 53.085187)">
                <path d="M0,0.347177807 C0,0.619177807 1.125,3.61017781 2.5,6.99417781 C3.875,10.3781778 5.053,15.0681778 5.118,17.4161778 L5.235,21.6861778 L6.039,17.1861778 C6.481,14.7111778 7.955,9.98617781 9.313,6.68617781 C10.672,3.38617781 11.425,0.784177807 10.987,0.904177807 C10.548,1.02517781 9.405,3.17717781 8.446,5.68817781 C7.487,8.19917781 6.207,10.0891778 5.601,9.88717781 C4.996,9.68617781 3.817,7.67517781 2.983,5.42017781 C1.636,1.77717781 0,-1.00382219 0,0.347177807" id="Path"></path>
            </g>
            <g id="Group" transform="translate(454.745000, 53.286260)">
                <path d="M0,10.9851048 L0,21.9851048 L4.75,21.8431048 L9.5,21.7011048 L5.5,21.0931048 C1.518,20.4881048 1.5,20.4651048 1.5,15.9951048 C1.5,11.8051048 1.7,11.4651048 4.5,10.9091048 L7.5,10.3141048 L4.5,9.90010481 C1.82,9.52910481 1.466,9.06910481 1.181,5.58710481 C0.981,3.14410481 1.354,1.37610481 2.181,0.852104814 C3.18,0.219104814 3.075,0.0121048139 1.75,0 C0.188,-0.0128951861 0,1.17010481 0,10.9851048" id="Path"></path>
            </g>
            <g id="Group" transform="translate(135.911476, 53.269364)">
                <path d="M0.0495241876,10.7520004 L0.333524188,21.5020004 L4.33352419,21.6580004 L8.33352419,21.8140004 L4.83352419,21.1580004 C1.47552419,20.5290004 1.32152419,20.3100004 1.02852419,15.7520004 C0.723524188,11.0020004 0.724524188,11.0020004 4.02852419,10.8840004 L7.33352419,10.7650004 L4.33352419,10.1170004 C1.51352419,9.50700035 1.33352419,9.18400035 1.33352419,4.73400035 C1.33352419,2.12900035 0.980524188,-0.000999648031 0.549524188,0 C0.118524188,0.00100035197 -0.106475812,4.84000035 0.0495241876,10.7520004" id="Path"></path>
            </g>
            <g id="Group" transform="translate(414.879561, 53.347318)">
                <path d="M0.0544388792,11.1740463 C0.158438879,17.3620463 0.405438879,19.8640463 0.602438879,16.7360463 C0.937438879,11.4340463 1.14543888,11.0200463 3.66343888,10.6360463 L6.36543888,10.2240463 L3.61543888,10.0740463 C1.05343888,9.93404632 0.865438879,9.62304632 0.865438879,5.50704632 C0.865438879,2.91004632 1.38043888,0.883046322 2.11543888,0.586046322 C2.86243888,0.285046322 2.66043888,0.0500463216 1.61543888,0.00304632156 C0.0374388792,-0.0679536784 -0.115561121,1.02804632 0.0544388792,11.1740463" id="Path"></path>
            </g>
            <g id="Group" transform="translate(253.893341, 18.308989)">
                <path d="M1.38965918,2.46237553 C2.42765918,4.11237553 4.28465918,6.82537553 5.51565918,8.49237553 C6.74665918,10.1583755 8.19665918,12.6333755 8.73865918,13.9923755 C9.46165918,15.8033755 9.74165918,15.9843755 9.78865918,14.6723755 C9.90265918,11.4393755 5.40265918,4.06037553 1.42665918,0.962375529 C-0.46934082,-0.515624471 -0.46934082,-0.492624471 1.38965918,2.46237553" id="Path"></path>
            </g>
            <g id="Group" transform="translate(291.983053, 0.000000)">
                <path d="M3.91194724,0.494364538 C3.82894724,1.44236454 2.78294724,4.23236454 1.58694724,6.69436454 C-0.171052761,10.3133645 -0.376052761,11.6123645 0.518947239,13.4713645 C1.55894724,15.6313645 1.63094724,15.5563645 1.69394724,12.2443645 C1.73194724,10.3033645 2.46594724,7.71036454 3.32694724,6.48136454 C4.18894724,5.25136454 4.70594724,3.01636454 4.47694724,1.50936454 C4.24894724,0.00336453762 3.99394724,-0.453635462 3.91194724,0.494364538" id="Path"></path>
            </g>
            <g id="Group" transform="translate(218.878743, 40.271365)">
                <path d="M0.0462569547,2.235 C0.394256955,4.669 6.27425695,8.425 11.366257,9.467 C13.221257,9.847 12.532257,9.331 9.55925695,8.115 C3.58725695,5.674 1.86625695,4.278 1.86625695,1.878 C1.86625695,0.845 1.38525695,0 0.796256955,0 C0.208256955,0 -0.128743045,1.006 0.0462569547,2.235" id="Path"></path>
            </g>
            <g id="Group" transform="translate(205.833575, 48.842181)">
                <path d="M1.66142479,3.19918398 C-0.351575214,8.11118398 -0.403575214,8.42918398 0.800424786,8.42918398 C1.28842479,8.42918398 2.05342479,6.74218398 2.49842479,4.67918398 C3.74742479,-1.10981602 3.56142479,-1.43781602 1.66142479,3.19918398" id="Path"></path>
            </g>
            <g id="Group" transform="translate(329.245000, 47.398988)">
                <path d="M2.5,0.579376733 C3.875,0.818376733 5.563,1.74337673 6.25,2.63437673 C6.938,3.52537673 7.5,3.80837673 7.5,3.26337673 C7.5,1.43437673 5.122,-0.128623267 2.55,0.00837673276 L0,0.144376733 L2.5,0.579376733" id="Path"></path>
            </g>
            <g id="Group" transform="translate(248.204851, 9.486406)">
                <path d="M0.112149302,0.78495863 C0.465149302,2.15995863 1.3971493,3.95895863 2.1811493,4.78295863 C2.9661493,5.60695863 2.6761493,4.48195863 1.5381493,2.28295863 C0.329149302,-0.0530413697 -0.263850698,-0.67604137 0.112149302,0.78495863" id="Path"></path>
            </g>
        </g>
    </g>
</svg>