<?xml version="1.0" encoding="utf-8"?>
<!DOCTYPE svg PUBLIC "-//W3C//DTD SVG 20010904//EN" "http://www.w3.org/TR/2001/REC-SVG-20010904/DTD/svg10.dtd">
<svg version="1.0" xmlns="http://www.w3.org/2000/svg" width="602pt" height="396pt" viewBox="0 0 602 396" style="" preserveAspectRatio="xMidYMid meet">
<g fill="#000000FF" stroke="#000000FF">
<path d="M 342.000 68.845 C 342.000 73.133 334.987 76.029 318.774 78.436 C 306.423 80.270 279.936 80.482 266.000 78.859 C 252.727 77.312 250.642 77.298 257.000 78.796 C 267.195 81.199 283.327 82.162 304.000 81.603 C 322.915 81.091 324.075 81.157 319.000 82.452 C 300.216 87.247 268.025 86.754 250.750 81.407 C 249.178 80.920 249.000 81.731 249.000 89.383 C 249.000 100.857 250.546 107.677 254.197 112.316 C 257.672 116.731 257.193 118.256 253.234 115.381 C 247.736 111.389 244.026 99.487 244.008 85.785 C 244.001 81.020 243.653 79.885 241.914 78.954 C 239.279 77.544 239.136 77.717 238.968 82.530 C 238.543 94.696 244.426 115.159 248.791 116.696 C 249.731 117.027 251.413 118.116 252.528 119.115 C 256.519 122.690 263.006 124.127 277.000 124.533 C 285.359 124.776 289.358 124.604 287.500 124.081 C 285.850 123.617 282.925 123.120 281.000 122.978 C 279.075 122.836 284.025 122.639 292.000 122.541 C 306.837 122.358 326.250 119.387 332.148 116.397 C 335.755 114.568 338.870 107.692 340.582 97.776 C 341.369 93.224 342.220 88.938 342.475 88.250 C 342.772 87.446 345.017 87.000 348.769 87.000 C 357.749 87.000 358.593 84.785 349.673 84.627 L 342.500 84.500 342.200 79.857 C 341.929 75.668 341.684 75.258 339.700 75.664 C 337.848 76.044 337.931 75.866 340.225 74.539 C 343.261 72.782 344.962 70.146 344.282 68.250 C 343.598 66.344 342.000 66.761 342.000 68.845 "/></g>
<g fill="#000000FF" stroke="#000000FF">
<path d="M 367.608 178.750 C 367.272 189.613 366.832 203.563 366.631 209.750 L 366.264 221.000 373.607 221.000 L 380.950 221.000 381.225 204.750 C 381.446 191.711 381.773 188.500 382.884 188.500 C 383.645 188.500 388.698 195.925 394.114 205.000 L 403.959 221.500 409.730 222.088 C 412.903 222.412 415.791 222.412 416.147 222.088 C 416.503 221.765 417.118 207.663 417.512 190.750 L 418.230 160.000 411.115 160.000 L 404.000 160.000 403.991 169.750 C 403.981 181.062 403.068 190.000 401.922 190.000 C 401.483 190.000 397.427 183.813 392.910 176.250 C 388.393 168.688 384.020 161.713 383.193 160.750 C 382.038 159.405 380.130 159.000 374.954 159.000 L 368.219 159.000 367.608 178.750 "/></g>
<g fill="#000000FF" stroke="#000000FF">
<path d="M 351.496 249.250 C 350.687 251.038 346.396 263.075 341.961 276.000 C 337.526 288.925 333.370 300.558 332.726 301.850 C 330.862 305.591 323.522 313.000 321.680 313.000 C 319.477 313.000 319.561 311.249 322.089 304.491 C 324.514 298.010 324.095 294.699 321.183 297.334 C 319.917 298.480 318.359 298.770 315.751 298.347 C 311.777 297.702 310.516 298.656 303.194 307.849 C 299.273 312.771 296.384 313.479 297.479 309.250 C 297.871 307.738 298.416 304.363 298.692 301.750 C 299.180 297.122 299.123 297.000 296.465 297.000 C 294.964 297.000 292.220 297.937 290.368 299.082 L 287.000 301.163 287.000 297.582 C 287.000 292.922 284.558 292.780 283.049 297.353 C 280.531 304.981 274.551 306.900 271.526 301.050 C 270.097 298.288 268.170 297.000 265.463 297.000 C 264.708 297.000 261.590 299.440 258.535 302.423 C 251.758 309.040 248.175 310.136 244.125 306.831 C 242.554 305.549 240.423 304.003 239.391 303.395 C 237.776 302.445 237.705 302.061 238.879 300.645 C 240.479 298.718 244.086 298.486 245.800 300.200 C 246.733 301.133 247.278 301.118 248.250 300.129 C 249.253 299.109 249.033 298.477 247.139 296.929 C 242.600 293.220 236.937 295.067 233.987 301.217 C 230.719 308.032 224.593 314.000 220.865 314.000 C 218.246 314.000 218.482 310.955 221.576 304.851 L 224.151 299.768 221.661 297.134 C 220.291 295.685 219.019 293.410 218.835 292.078 C 218.266 287.963 216.369 288.686 213.248 294.207 C 209.761 300.377 201.451 308.496 196.511 310.560 C 191.901 312.486 187.000 312.455 187.000 310.500 C 187.000 309.675 187.879 309.000 188.953 309.000 C 194.535 309.000 199.220 303.148 196.983 298.969 C 193.342 292.165 183.000 299.371 183.000 308.713 C 183.000 319.855 197.631 317.839 210.008 304.991 C 213.183 301.696 216.280 299.000 216.890 299.000 C 218.438 299.000 218.274 302.101 216.500 306.346 C 212.705 315.429 216.083 319.768 224.460 316.568 C 227.134 315.547 230.407 313.174 232.477 310.755 C 235.679 307.015 236.189 306.765 238.488 307.813 C 239.870 308.442 240.998 309.304 240.996 309.729 C 240.994 310.153 238.632 311.625 235.746 313.000 C 231.461 315.042 230.440 316.020 230.175 318.338 C 229.790 321.698 232.385 325.002 235.405 324.996 C 238.837 324.990 243.540 321.489 245.410 317.548 C 246.703 314.824 248.353 313.349 251.722 311.905 C 256.626 309.803 256.714 309.820 258.455 313.232 C 260.331 316.908 265.725 316.070 269.555 311.508 C 272.134 308.436 273.034 307.971 275.301 308.539 C 277.793 309.165 277.944 309.498 277.367 313.107 C 276.425 318.996 278.829 318.137 285.124 310.336 C 293.509 299.943 296.157 299.205 293.934 307.880 C 292.265 314.394 293.423 315.973 299.859 315.954 C 302.412 315.946 305.764 315.999 307.308 316.072 C 308.853 316.145 310.913 315.483 311.887 314.602 C 314.277 312.439 314.887 312.572 316.000 315.500 C 317.091 318.369 320.078 318.742 324.000 316.500 C 325.375 315.714 326.838 315.055 327.250 315.035 C 328.491 314.977 328.061 318.170 325.999 324.335 C 323.016 333.249 322.363 339.818 324.381 340.593 C 327.052 341.618 332.580 337.173 337.866 329.750 C 338.923 328.265 338.962 327.568 338.038 326.666 C 337.123 325.772 336.104 326.376 333.672 329.250 C 329.826 333.797 327.489 334.243 328.433 330.250 C 329.930 323.916 338.798 296.804 347.107 273.163 C 352.004 259.228 355.757 247.415 355.446 246.913 C 354.374 245.177 352.962 246.012 351.496 249.250 M 267.639 302.502 C 268.430 304.564 267.322 308.535 265.427 310.430 C 262.739 313.118 261.696 312.300 262.278 307.961 C 263.061 302.123 266.249 298.878 267.639 302.502 M 316.000 303.423 C 316.000 305.399 311.129 311.000 309.411 311.000 C 307.705 311.000 307.664 310.518 309.128 307.684 C 311.709 302.689 316.000 300.028 316.000 303.423 M 241.000 316.171 C 241.000 318.080 237.839 321.000 235.772 321.000 C 233.065 321.000 233.887 317.869 237.009 316.290 C 240.126 314.713 241.000 314.687 241.000 316.171 M 193.527 301.044 C 194.334 302.349 192.223 305.000 190.378 305.000 C 188.681 305.000 188.579 302.821 190.200 301.200 C 191.676 299.724 192.682 299.677 193.527 301.044 "/></g>
<g fill="#000000FF" stroke="#000000FF">
<path d="M 249.000 169.481 C 249.000 183.099 250.095 182.230 233.500 181.791 L 222.500 181.500 222.217 170.250 L 221.934 159.000 214.967 159.000 L 208.000 159.000 208.000 174.841 C 208.000 183.554 208.295 197.504 208.656 205.841 L 209.312 221.000 216.156 221.000 L 223.000 221.000 223.000 208.471 L 223.000 195.942 236.250 196.221 L 249.500 196.500 249.782 208.250 L 250.063 220.000 257.191 220.000 L 264.319 220.000 263.660 197.338 C 263.297 184.875 263.000 170.925 263.000 166.338 L 263.000 158.000 256.000 158.000 L 249.000 158.000 249.000 169.481 "/></g>
<g fill="#000000FF" stroke="#000000FF">
<path d="M 94.535 163.909 C 93.059 164.486 91.657 167.761 88.895 177.088 C 86.874 183.915 82.688 197.780 79.593 207.899 C 76.498 218.019 74.187 226.520 74.458 226.791 C 74.728 227.062 78.179 226.882 82.127 226.392 L 89.304 225.500 90.668 220.799 C 91.418 218.214 92.362 215.909 92.766 215.678 C 93.170 215.447 98.350 214.944 104.277 214.560 L 115.054 213.863 117.160 218.931 L 119.267 224.000 127.133 224.000 C 131.460 224.000 134.999 223.888 134.997 223.750 C 134.995 223.613 132.051 216.750 128.456 208.500 C 124.860 200.250 118.960 186.638 115.345 178.250 L 108.771 163.000 102.636 163.070 C 99.261 163.109 95.616 163.486 94.535 163.909 M 105.816 192.269 C 108.420 198.551 108.497 199.595 106.418 200.393 C 104.056 201.300 98.195 201.125 97.581 200.130 C 96.729 198.753 101.050 187.000 102.408 187.000 C 103.081 187.000 104.615 189.371 105.816 192.269 "/></g>
<g fill="#000000FF" stroke="#000000FF">
<path d="M 304.216 166.250 C 302.484 170.788 297.264 184.625 292.615 197.000 L 284.162 219.500 291.831 219.784 L 299.500 220.069 301.535 214.784 L 303.570 209.500 314.535 209.500 L 325.500 209.500 327.907 214.674 C 329.383 217.848 331.124 220.066 332.407 220.411 C 335.677 221.289 345.000 221.096 345.000 220.150 C 345.000 219.382 326.467 167.328 323.851 160.750 C 322.790 158.083 322.525 158.000 315.061 158.000 L 307.364 158.000 304.216 166.250 M 319.374 192.448 C 319.494 195.348 319.288 195.515 315.241 195.808 C 312.149 196.031 310.822 195.700 310.400 194.599 C 309.717 192.821 311.548 186.571 313.797 183.002 L 315.371 180.504 317.310 184.950 C 318.376 187.395 319.305 190.769 319.374 192.448 "/></g>
<g fill="#000000FF" stroke="#000000FF">
<path d="M 36.077 167.055 C 30.895 167.478 24.764 168.108 22.455 168.455 L 18.255 169.084 18.673 173.292 C 18.903 175.606 19.936 189.353 20.969 203.840 C 22.002 218.327 23.071 230.404 23.345 230.678 C 23.619 230.952 26.778 230.862 30.366 230.477 L 36.890 229.779 36.298 217.991 L 35.705 206.204 44.602 205.543 C 59.563 204.432 58.690 204.934 58.202 197.712 C 57.971 194.295 57.494 191.229 57.141 190.897 C 56.789 190.565 52.000 190.680 46.500 191.152 C 41.000 191.625 35.913 191.788 35.195 191.516 C 34.310 191.180 33.988 189.488 34.195 186.260 L 34.500 181.500 46.000 180.500 C 54.104 179.795 57.470 179.131 57.400 178.250 C 57.345 177.563 57.233 174.525 57.150 171.500 L 57.000 166.000 51.250 166.143 C 48.088 166.221 41.260 166.631 36.077 167.055 "/></g>
<g fill="#000000FF" stroke="#000000FF">
<path d="M 484.622 167.125 C 484.339 168.981 483.626 179.275 483.037 190.000 C 482.449 200.725 481.688 213.213 481.346 217.750 L 480.725 226.000 487.720 226.000 L 494.715 226.000 495.358 219.853 C 495.711 216.473 496.007 211.860 496.015 209.603 C 496.041 202.760 496.368 202.600 508.785 203.354 L 519.758 204.021 520.242 197.760 C 520.507 194.317 520.571 191.221 520.384 190.880 C 520.196 190.539 515.061 189.937 508.972 189.543 L 497.902 188.825 498.201 183.663 L 498.500 178.500 510.104 178.855 L 521.708 179.209 522.354 175.980 C 522.709 174.203 523.000 171.267 523.000 169.454 C 523.000 165.345 522.839 165.307 501.319 164.419 L 485.137 163.750 484.622 167.125 "/></g>
<g fill="#000000FF" stroke="#000000FF">
<path d="M 152.516 160.749 C 145.925 160.924 140.139 161.461 139.657 161.943 C 139.176 162.424 139.107 165.615 139.504 169.035 L 140.226 175.253 147.030 174.766 C 150.772 174.498 154.306 174.571 154.884 174.928 C 155.503 175.311 156.168 181.933 156.501 191.039 C 156.813 199.542 157.320 210.232 157.628 214.794 L 158.187 223.087 164.843 222.794 L 171.500 222.500 171.482 217.000 C 171.472 213.975 171.247 203.175 170.982 193.000 L 170.500 174.500 178.250 173.631 L 186.000 172.762 186.000 167.963 C 186.000 165.323 185.727 162.452 185.393 161.582 C 184.751 159.910 184.396 159.901 152.516 160.749 "/></g>
<g fill="#000000FF" stroke="#000000FF">
<path d="M 401.325 252.234 C 398.984 255.880 384.262 292.317 380.966 302.623 C 378.715 309.662 378.824 313.541 381.251 312.769 C 381.938 312.550 385.334 307.003 388.798 300.441 C 397.684 283.612 405.092 271.473 410.728 264.506 C 415.787 258.254 419.000 256.398 419.000 259.730 C 419.000 265.045 404.713 288.478 399.902 291.052 C 396.363 292.946 397.631 294.862 402.305 294.681 C 407.343 294.486 411.168 296.633 414.104 301.304 C 415.863 304.102 416.058 305.745 415.672 314.500 C 415.162 326.064 414.262 329.491 409.768 336.960 C 403.800 346.881 391.823 352.855 386.865 348.385 C 382.265 344.238 386.916 328.996 395.973 318.531 C 399.890 314.006 400.364 312.000 397.519 312.000 C 395.324 312.000 389.155 319.924 385.327 327.661 C 382.772 332.824 381.638 336.636 381.262 341.326 C 380.779 347.336 380.936 348.027 383.324 350.415 C 385.822 352.912 388.026 353.427 394.500 353.026 C 400.957 352.625 410.552 344.587 415.097 335.771 C 420.726 324.851 421.574 305.487 416.742 298.186 C 415.298 296.004 412.740 293.610 411.058 292.866 C 409.376 292.121 408.000 290.961 408.000 290.287 C 408.000 289.613 409.967 286.011 412.371 282.281 C 423.009 265.776 425.776 255.333 419.999 253.500 C 415.599 252.103 409.154 258.368 399.424 273.500 C 393.993 281.946 394.010 278.514 399.462 265.749 C 401.958 259.907 404.000 254.450 404.000 253.623 C 404.000 251.560 402.318 250.687 401.325 252.234 "/></g>
<g fill="#000000FF" stroke="#000000FF">
<path d="M 140.561 248.250 C 139.825 250.038 134.166 266.125 127.984 284.000 C 121.803 301.875 114.104 323.925 110.875 333.000 C 104.716 350.310 104.113 353.000 106.393 353.000 C 108.035 353.000 107.614 353.986 115.100 332.632 C 126.226 300.898 139.057 277.884 153.957 262.936 C 161.738 255.130 168.077 251.746 174.091 252.190 C 179.791 252.610 182.221 255.909 182.808 264.023 C 183.721 276.651 178.241 291.842 169.054 302.150 C 163.565 308.308 156.976 312.250 148.465 314.467 C 140.980 316.417 136.261 316.404 130.415 314.420 C 124.779 312.506 122.305 313.843 126.453 316.561 C 129.862 318.795 141.856 319.625 148.898 318.115 C 157.088 316.359 164.381 312.402 170.257 306.525 C 181.871 294.912 188.442 275.815 186.038 260.666 C 185.224 255.536 184.469 253.954 181.545 251.250 C 178.699 248.619 177.200 248.000 173.674 248.000 C 164.298 248.000 151.649 257.465 140.264 273.000 C 135.808 279.080 135.508 279.305 135.623 276.477 C 135.690 274.815 137.848 267.655 140.418 260.566 C 142.988 253.477 144.859 247.075 144.576 246.339 C 143.694 244.038 141.953 244.867 140.561 248.250 "/></g>
<g fill="#000000FF" stroke="#000000FF">
<path d="M 443.170 299.512 C 440.349 303.097 438.529 311.252 439.955 313.917 C 441.952 317.648 449.042 315.754 451.601 310.805 C 452.399 309.262 453.453 308.000 453.944 308.000 C 456.537 308.000 458.000 309.468 458.000 312.072 C 458.000 316.211 460.913 317.486 465.437 315.329 C 467.383 314.401 469.208 313.875 469.494 314.160 C 469.779 314.446 467.531 321.985 464.499 330.914 C 455.968 356.032 449.404 371.000 446.918 371.000 C 444.446 371.000 447.219 356.085 451.483 346.442 C 452.891 343.258 455.666 338.673 457.649 336.253 C 461.223 331.892 461.248 329.200 457.702 330.561 C 455.807 331.288 450.162 339.700 447.677 345.500 C 442.400 357.821 440.325 373.365 443.595 376.079 C 446.303 378.327 450.073 375.271 454.201 367.482 C 460.468 355.659 480.255 298.922 478.666 297.333 C 478.250 296.916 477.070 297.100 476.045 297.740 C 475.020 298.380 472.660 298.657 470.801 298.355 C 467.960 297.894 466.734 298.380 463.116 301.403 C 460.748 303.381 458.248 305.000 457.560 305.000 C 456.052 305.000 453.000 301.792 453.000 300.206 C 453.000 298.774 449.757 297.000 447.138 297.000 C 446.042 297.000 444.256 298.130 443.170 299.512 M 449.458 302.868 C 450.191 305.178 448.767 309.118 446.528 310.977 C 445.088 312.172 444.719 312.166 443.947 310.936 C 442.931 309.317 443.530 306.575 445.627 303.250 C 447.355 300.511 448.668 300.380 449.458 302.868 M 471.000 303.429 C 471.000 304.215 469.328 306.577 467.285 308.679 C 463.894 312.167 463.541 312.316 463.234 310.388 C 463.040 309.175 464.022 306.939 465.537 305.138 C 468.308 301.845 471.000 301.003 471.000 303.429 "/></g>
<g fill="#000000FF" stroke="#000000FF">
<path d="M 548.604 171.119 C 547.775 176.358 543.926 229.260 544.344 229.678 C 544.548 229.882 547.668 230.324 551.276 230.661 L 557.836 231.274 558.412 226.887 C 559.134 221.394 562.946 169.612 562.650 169.317 C 562.531 169.198 559.442 168.794 555.787 168.419 L 549.140 167.738 548.604 171.119 "/></g>
<g fill="#000000FF" stroke="#000000FF">
<path d="M 280.448 63.084 C 280.051 63.727 278.534 63.957 276.879 63.626 C 275.095 63.269 274.000 63.471 274.000 64.156 C 274.000 64.861 272.732 65.056 270.500 64.694 C 267.789 64.254 267.000 64.468 267.000 65.642 C 267.000 66.795 267.695 67.006 269.897 66.523 C 271.886 66.086 273.999 66.532 276.633 67.943 C 281.242 70.413 282.000 70.482 282.000 68.427 C 282.000 66.211 285.389 67.064 285.837 69.392 C 286.384 72.232 284.131 72.957 280.115 71.232 C 277.687 70.190 273.989 69.754 268.852 69.905 C 261.916 70.108 261.057 69.919 259.625 67.875 C 258.757 66.635 257.728 65.939 257.340 66.327 C 256.951 66.715 257.166 67.566 257.817 68.217 C 258.468 68.867 259.000 70.075 259.000 70.900 C 259.000 72.067 258.733 72.133 257.800 71.200 C 257.140 70.540 255.735 70.000 254.678 70.000 C 251.363 70.000 254.534 72.609 259.556 74.016 C 263.585 75.144 264.212 75.093 265.343 73.545 C 267.095 71.150 271.500 71.833 271.500 74.500 C 271.500 76.906 275.264 77.857 285.133 77.942 C 290.952 77.993 291.831 77.754 292.290 76.000 C 293.008 73.253 297.012 73.330 297.738 76.105 C 298.219 77.947 298.785 78.130 302.269 77.573 C 304.459 77.223 307.207 76.388 308.375 75.718 C 310.315 74.606 310.173 74.510 306.750 74.614 C 302.806 74.734 302.220 74.180 304.200 72.200 C 306.055 70.345 308.729 70.775 310.430 73.203 C 311.919 75.330 312.189 75.361 318.235 74.112 C 321.680 73.401 326.074 72.133 327.999 71.294 L 331.500 69.769 328.231 68.374 C 325.428 67.178 324.644 67.180 322.731 68.391 C 319.135 70.668 314.253 71.260 309.160 70.038 C 305.890 69.254 303.058 69.202 300.079 69.871 C 297.586 70.431 294.850 70.480 293.625 69.985 C 292.169 69.397 292.001 69.107 293.089 69.063 C 294.311 69.015 297.000 65.294 297.000 63.653 C 297.000 63.514 293.774 63.290 289.830 63.154 C 285.887 63.019 282.318 62.696 281.899 62.438 C 281.481 62.179 280.828 62.470 280.448 63.084 "/></g>
<g fill="#000000FF" stroke="#000000FF">
<path d="M 446.708 250.250 C 431.486 293.963 427.058 307.113 422.909 320.923 C 420.195 329.956 418.236 338.168 418.555 339.173 C 419.458 342.020 422.619 341.339 427.039 337.346 C 432.881 332.068 435.516 328.116 434.121 326.721 C 433.289 325.889 432.013 326.558 429.206 329.299 C 427.121 331.334 425.047 333.000 424.597 333.000 C 424.146 333.000 424.075 331.411 424.440 329.469 C 425.270 325.045 437.865 286.678 445.360 265.745 C 448.462 257.081 451.000 249.093 451.000 247.995 C 451.000 244.431 448.227 245.888 446.708 250.250 "/></g>
<g fill="#000000FF" stroke="#000000FF">
<path d="M 410.000 81.000 C 408.385 82.615 408.000 84.333 408.000 89.935 C 408.000 99.547 409.073 102.000 413.275 102.000 C 418.351 102.000 419.000 100.677 419.000 90.335 C 419.000 82.199 418.764 80.944 417.066 80.035 C 414.195 78.499 412.233 78.767 410.000 81.000 M 416.965 81.934 C 418.202 84.246 418.325 97.938 417.126 99.830 C 416.647 100.586 415.034 101.018 413.391 100.830 L 410.500 100.500 410.210 91.651 C 409.906 82.384 410.699 80.000 414.087 80.000 C 415.101 80.000 416.395 80.870 416.965 81.934 "/></g>
<g fill="#000000FF" stroke="#000000FF">
<path d="M 50.216 90.750 L 50.500 101.500 54.425 101.370 C 59.309 101.209 61.423 98.790 60.429 94.500 C 60.046 92.850 59.820 89.293 59.926 86.596 C 60.120 81.673 59.158 80.048 56.027 80.015 C 55.060 80.005 55.318 80.534 56.777 81.557 C 59.357 83.364 59.693 87.180 57.437 89.052 C 56.019 90.229 56.019 90.431 57.437 91.225 C 59.842 92.571 59.486 98.669 56.922 100.042 C 52.674 102.315 51.978 100.825 52.249 90.030 C 52.440 82.399 52.193 79.998 51.216 79.999 C 50.233 80.000 49.999 82.519 50.216 90.750 "/></g>
<g fill="#000000FF" stroke="#000000FF">
<path d="M 322.496 39.500 C 324.666 44.867 324.238 47.409 320.572 50.946 C 316.693 54.688 316.270 56.451 318.532 59.441 C 319.924 61.281 320.000 61.220 320.000 58.259 C 320.000 55.889 320.543 54.969 322.250 54.449 C 328.693 52.486 329.707 47.378 324.844 41.388 C 323.108 39.249 322.052 38.400 322.496 39.500 "/></g>
<g fill="#000000FF" stroke="#000000FF">
<path d="M 304.000 64.221 C 304.000 64.719 302.999 64.985 301.775 64.813 C 300.384 64.617 299.433 65.083 299.239 66.053 C 298.998 67.263 299.656 67.522 302.215 67.226 C 304.022 67.016 308.554 67.255 312.286 67.756 C 317.359 68.438 319.504 68.352 320.785 67.415 C 322.341 66.277 322.269 66.118 319.999 65.670 C 318.624 65.399 316.600 65.159 315.500 65.137 C 314.400 65.115 311.363 64.697 308.750 64.207 C 305.929 63.679 304.000 63.684 304.000 64.221 "/></g>
<g fill="#000000FF" stroke="#000000FF">
<path d="M 137.332 86.168 C 135.550 92.135 133.624 94.499 132.739 91.805 C 132.503 91.087 132.513 91.850 132.760 93.500 C 133.008 95.150 133.599 96.913 134.073 97.417 C 135.015 98.420 135.317 97.782 136.978 91.292 C 139.017 83.323 140.664 85.114 141.306 96.000 C 141.484 99.025 141.713 96.663 141.815 90.750 C 141.964 82.067 141.728 80.000 140.587 80.000 C 139.721 80.000 138.460 82.389 137.332 86.168 "/></g>
<g fill="#000000FF" stroke="#000000FF">
<path d="M 188.544 82.250 C 188.272 83.488 187.202 88.213 186.166 92.750 C 185.130 97.288 184.669 101.000 185.141 101.000 C 185.613 101.000 186.000 100.086 186.000 98.969 C 186.000 97.851 186.713 96.664 187.584 96.329 C 188.637 95.925 188.795 95.492 188.057 95.035 C 186.567 94.115 188.726 83.742 190.298 84.266 C 191.744 84.748 193.282 90.743 192.718 93.695 C 192.476 94.963 192.627 96.000 193.055 96.000 C 193.483 96.000 194.285 97.238 194.838 98.750 C 196.570 103.492 196.099 98.581 193.910 89.076 C 192.510 82.991 191.362 80.000 190.429 80.000 C 189.664 80.000 188.816 81.013 188.544 82.250 "/></g>
<g fill="#000000FF" stroke="#000000FF">
<path d="M 127.667 80.667 C 126.571 81.762 126.887 101.000 128.000 101.000 C 128.578 101.000 129.000 97.833 129.000 93.500 C 129.000 89.167 129.422 86.000 130.000 86.000 C 130.550 86.000 131.000 86.750 131.000 87.667 C 131.000 88.583 131.255 89.079 131.566 88.768 C 132.340 87.993 130.118 80.000 129.128 80.000 C 128.691 80.000 128.033 80.300 127.667 80.667 "/></g>
<g fill="#000000FF" stroke="#000000FF">
<path d="M 387.652 80.265 C 386.175 81.345 385.964 82.991 386.211 91.515 L 386.500 101.500 389.815 101.818 C 393.325 102.155 396.000 100.667 396.000 98.378 C 396.000 96.241 394.298 96.754 393.691 99.074 C 393.275 100.666 392.493 101.072 390.324 100.824 L 387.500 100.500 387.214 91.402 C 386.992 84.309 387.257 82.032 388.416 81.069 C 390.534 79.312 393.436 80.552 394.703 83.757 C 395.671 86.205 395.799 86.266 395.894 84.321 C 396.106 79.975 391.291 77.605 387.652 80.265 "/></g>
<g fill="#000000FF" stroke="#000000FF">
<path d="M 72.208 89.550 C 72.068 96.286 72.396 99.996 73.200 100.800 C 74.674 102.274 78.470 102.354 81.066 100.965 C 82.807 100.033 82.979 98.910 82.792 89.715 L 82.585 79.500 82.252 88.946 C 81.899 98.984 81.104 101.000 77.500 101.000 C 73.896 101.000 73.101 98.984 72.748 88.946 L 72.415 79.500 72.208 89.550 "/></g>
<g fill="#000000FF" stroke="#000000FF">
<path d="M 452.000 90.500 C 452.000 96.833 452.397 101.000 453.000 101.000 C 453.550 101.000 454.000 98.780 454.000 96.066 C 454.000 91.452 454.178 91.106 456.750 90.716 L 459.500 90.300 456.750 90.150 C 454.188 90.010 454.000 89.699 454.000 85.583 C 454.000 82.986 454.515 80.959 455.250 80.662 C 455.938 80.385 455.488 80.122 454.250 80.079 C 452.055 80.002 452.000 80.254 452.000 90.500 "/></g>
<g fill="#000000FF" stroke="#000000FF">
<path d="M 494.000 91.000 L 494.000 102.000 498.750 101.858 L 503.500 101.716 499.500 101.108 C 495.516 100.502 495.500 100.482 495.500 96.000 C 495.500 91.634 495.604 91.483 499.000 90.923 L 502.500 90.347 499.000 89.923 C 495.655 89.519 495.500 89.323 495.500 85.510 C 495.500 81.886 495.775 81.461 498.500 80.878 C 501.406 80.257 501.383 80.233 497.750 80.118 L 494.000 80.000 494.000 91.000 "/></g>
<g fill="#000000FF" stroke="#000000FF">
<path d="M 93.000 80.161 C 93.000 80.433 94.125 83.424 95.500 86.808 C 96.875 90.192 98.053 94.882 98.118 97.230 L 98.235 101.500 99.039 97.000 C 99.481 94.525 100.955 89.800 102.313 86.500 C 103.672 83.200 104.425 80.598 103.987 80.718 C 103.548 80.839 102.405 82.991 101.446 85.502 C 100.487 88.013 99.207 89.903 98.601 89.701 C 97.996 89.500 96.817 87.489 95.983 85.234 C 94.636 81.591 93.000 78.810 93.000 80.161 "/></g>
<g fill="#000000FF" stroke="#000000FF">
<path d="M 473.000 91.000 L 473.000 102.000 477.750 101.858 L 482.500 101.716 478.500 101.108 C 474.518 100.503 474.500 100.480 474.500 96.010 C 474.500 91.820 474.700 91.480 477.500 90.924 L 480.500 90.329 477.500 89.915 C 474.820 89.544 474.466 89.084 474.181 85.602 C 473.981 83.159 474.354 81.391 475.181 80.867 C 476.180 80.234 476.075 80.027 474.750 80.015 C 473.188 80.002 473.000 81.185 473.000 91.000 "/></g>
<g fill="#000000FF" stroke="#000000FF">
<path d="M 154.216 90.750 L 154.500 101.500 158.500 101.656 L 162.500 101.812 159.000 101.156 C 155.642 100.527 155.488 100.308 155.195 95.750 C 154.890 91.000 154.891 91.000 158.195 90.882 L 161.500 90.763 158.500 90.115 C 155.680 89.505 155.500 89.182 155.500 84.732 C 155.500 82.127 155.147 79.997 154.716 79.998 C 154.285 79.999 154.060 84.838 154.216 90.750 "/></g>
<g fill="#000000FF" stroke="#000000FF">
<path d="M 433.189 91.250 C 433.293 97.438 433.540 99.940 433.737 96.812 C 434.072 91.510 434.280 91.096 436.798 90.712 L 439.500 90.300 436.750 90.150 C 434.188 90.010 434.000 89.699 434.000 85.583 C 434.000 82.986 434.515 80.959 435.250 80.662 C 435.997 80.361 435.795 80.126 434.750 80.079 C 433.172 80.008 433.019 81.104 433.189 91.250 "/></g>
<g fill="#000000FF" stroke="#000000FF">
<path d="M 273.538 47.500 C 274.576 49.150 276.433 51.863 277.664 53.530 C 278.895 55.196 280.345 57.671 280.887 59.030 C 281.610 60.841 281.890 61.022 281.937 59.710 C 282.051 56.477 277.551 49.098 273.575 46.000 C 271.679 44.522 271.679 44.545 273.538 47.500 "/></g>
<g fill="#000000FF" stroke="#000000FF">
<path d="M 314.150 27.223 C 314.067 28.171 313.021 30.961 311.825 33.423 C 310.067 37.042 309.862 38.341 310.757 40.200 C 311.797 42.360 311.869 42.285 311.932 38.973 C 311.970 37.032 312.704 34.439 313.565 33.210 C 314.427 31.980 314.944 29.745 314.715 28.238 C 314.487 26.732 314.232 26.275 314.150 27.223 "/></g>
<g fill="#000000FF" stroke="#000000FF">
<path d="M 237.180 69.235 C 237.528 71.669 243.408 75.425 248.500 76.467 C 250.355 76.847 249.666 76.331 246.693 75.115 C 240.721 72.674 239.000 71.278 239.000 68.878 C 239.000 67.845 238.519 67.000 237.930 67.000 C 237.342 67.000 237.005 68.006 237.180 69.235 "/></g>
<g fill="#000000FF" stroke="#000000FF">
<path d="M 225.750 78.770 C 223.737 83.682 223.685 84.000 224.889 84.000 C 225.377 84.000 226.142 82.313 226.587 80.250 C 227.836 74.461 227.650 74.133 225.750 78.770 "/></g>
<g fill="#000000FF" stroke="#000000FF">
<path d="M 350.000 74.707 C 351.375 74.946 353.063 75.871 353.750 76.762 C 354.438 77.653 355.000 77.936 355.000 77.391 C 355.000 75.562 352.622 73.999 350.050 74.136 L 347.500 74.272 350.000 74.707 "/></g>
<g fill="#000000FF" stroke="#000000FF">
<path d="M 266.572 37.000 C 266.925 38.375 267.857 40.174 268.641 40.998 C 269.426 41.822 269.136 40.697 267.998 38.498 C 266.789 36.162 266.196 35.539 266.572 37.000 "/></g>
</svg>
